<svg width="42" height="60" viewBox="0 0 42 60" fill="none" xmlns="http://www.w3.org/2000/svg">
<path d="M0 11.2257C0 5.0259 4.97749 0 11.1176 0H30.1939C36.334 0 41.3115 5.0259 41.3115 11.2257C41.3115 15.1514 39.3157 18.6066 36.2928 20.6129C39.3157 22.6194 41.3115 26.0745 41.3115 30.0002C41.3115 36.2 36.334 41.226 30.1939 41.226H29.9525C27.074 41.226 24.451 40.1214 22.4766 38.3091V48.6524C22.4766 54.9348 17.369 60 11.1775 60C5.05273 60 0 54.9894 0 48.7743C0 44.8487 1.99557 41.3938 5.01828 39.3873C1.99557 37.3808 0 33.9258 0 30.0002C0 26.0745 1.99574 22.6194 5.01866 20.6129C1.99574 18.6066 0 15.1514 0 11.2257ZM18.8349 22.4516H11.1176C6.98872 22.4516 3.64166 25.8313 3.64166 30.0002C3.64166 34.1531 6.9629 37.5227 11.0698 37.5487C11.0857 37.5486 11.1016 37.5486 11.1176 37.5486H18.8349V22.4516ZM22.4766 30.0002C22.4766 34.1692 25.8236 37.5489 29.9525 37.5489H30.1939C34.3228 37.5489 37.6698 34.1692 37.6698 30.0002C37.6698 25.8313 34.3228 22.4516 30.1939 22.4516H29.9525C25.8236 22.4516 22.4766 25.8313 22.4766 30.0002ZM11.1176 41.226C11.1016 41.226 11.0857 41.2259 11.0698 41.2259C6.9629 41.2518 3.64166 44.6214 3.64166 48.7743C3.64166 52.928 7.03343 56.3229 11.1775 56.3229C15.3883 56.3229 18.8349 52.8734 18.8349 48.6524V41.226H11.1176ZM11.1176 3.67709C6.98872 3.67709 3.64166 7.05671 3.64166 11.2257C3.64166 15.3947 6.98872 18.7743 11.1176 18.7743H18.8349V3.67709H11.1176ZM22.4766 18.7743H30.1939C34.3228 18.7743 37.6698 15.3947 37.6698 11.2257C37.6698 7.05671 34.3228 3.67709 30.1939 3.67709H22.4766V18.7743Z" fill="white" fill-opacity="0.84"/>
</svg>
