<svg width="60" height="60" viewBox="0 0 60 60" fill="none" xmlns="http://www.w3.org/2000/svg">
<rect width="60" height="60" rx="5" fill="white"/>
<rect x="3" y="3" width="54" height="54" rx="5" fill="#A9A9A9"/>
<path d="M31.4286 38.6878L35.8462 35.7648C36.1923 36.8524 38.3846 39.4356 41.1538 39.4356C43.9231 39.4356 45.2088 37.9231 45.2088 36.9204C45.2088 34.1878 42.3811 33.2244 41.0229 32.7616C40.8015 32.6862 40.6192 32.6241 40.4945 32.5698C40.4306 32.5419 40.3339 32.505 40.2097 32.4575C38.6992 31.8804 33.1264 29.7513 33.1264 23.5796C33.1264 16.7817 39.6868 16 41.1703 16C42.1409 16 46.8077 16.119 49.1319 20.4866L44.8462 23.4776C43.9066 21.5742 42.3455 20.9454 41.3846 20.9454C39.011 20.9454 38.5165 22.6856 38.5165 23.4776C38.5165 25.7002 41.0953 26.6964 43.2729 27.5376C43.8426 27.7577 44.3848 27.9671 44.8462 28.1851C47.2198 29.3068 50.7143 31.1422 50.7143 36.9204C50.7143 39.8145 48.2868 44.5 42.1758 44.5C33.967 44.5 31.7912 39.5716 31.4286 38.6878Z" fill="#F9F0F0"/>
<path d="M10 39.2683L14.6043 36.3467C14.9651 37.4338 16.367 39.4382 18.4011 39.4382C20.4353 39.4382 21.4764 37.3489 21.4764 36.3467V16.6429H27.139V36.3467C27.2306 39.0645 25.7233 44.5 19.0712 44.5C12.955 44.5 10.4123 40.865 10 39.2683Z" fill="#F9F0F0"/>
</svg>
