<svg width="60" height="60" viewBox="0 0 60 60" fill="none" xmlns="http://www.w3.org/2000/svg">
<path d="M2.49997 2.56406H57.5V57.4358H2.49997V2.56406ZM0 60H60V0H0V60ZM40.45 24.6153C38.475 24.6153 37.8001 25.6409 37.8001 26.4871C37.8001 27.4101 38.25 28.0512 40.9 29.4615C44.825 31.4102 46.0501 33.282 46.0501 36.0256C46.0501 40.1281 43.0001 42.3333 38.875 42.3333C36.7 42.3333 34.825 41.8717 33.75 41.2307C33.575 41.1538 33.55 41.0256 33.55 40.8204V37.0512C33.55 36.7948 33.675 36.7178 33.8501 36.8461C35.4251 37.8974 37.225 38.3589 38.875 38.3589C40.8501 38.3589 41.675 37.5128 41.675 36.3589C41.675 35.4358 41.1 34.6153 38.575 33.282C35.0249 31.5384 33.55 29.7692 33.55 26.8205C33.55 23.5127 36.0751 20.7692 40.45 20.7692C42.6 20.7692 44.1 21.1026 44.925 21.4872C45.125 21.6153 45.175 21.8204 45.175 21.9999V25.5127C45.175 25.7178 45.05 25.846 44.7999 25.769C43.7 25.0513 42.075 24.6153 40.45 24.6153ZM18.95 27.6666C19.525 27.7179 19.975 27.7179 20.975 27.7179C23.9001 27.7179 26.65 26.6667 26.65 22.5898C26.65 19.3334 24.675 17.6923 21.3501 17.6923C20.3501 17.6923 19.4 17.7436 18.95 17.7692V27.6666ZM14.5001 14.0512C14.5001 13.8718 14.8501 13.7435 15.05 13.7435C16.6501 13.6666 19.0251 13.6153 21.5 13.6153C28.425 13.6153 31.1249 17.5127 31.1249 22.4871C31.1249 28.9999 26.525 31.7948 20.875 31.7948C19.925 31.7948 19.6001 31.7435 18.925 31.7435V41.5897C18.925 41.7948 18.85 41.8973 18.625 41.8973H14.8C14.6001 41.8973 14.5 41.8204 14.5 41.5897V14.0512H14.5001Z" fill="white" fill-opacity="0.84"/>
</svg>
