<svg width="310" height="39" viewBox="0 0 310 39" fill="none" xmlns="http://www.w3.org/2000/svg">
<path fill-rule="evenodd" clip-rule="evenodd" d="M144.85 17.1336V29.4429H142.427V16.2761L144.85 17.1336Z" fill="white" fill-opacity="0.84"/>
<path fill-rule="evenodd" clip-rule="evenodd" d="M135.553 16.0484C135.457 12.8358 137.156 11.1976 139.368 11.1976C140.715 11.1976 141.74 11.6151 143.92 12.6432C145.523 13.414 146.709 13.9925 147.896 13.9925C149.05 13.9925 149.595 13.0608 149.627 11.2939H151.518C151.679 14.86 149.851 16.145 147.864 16.145C146.581 16.145 145.427 15.7597 143.215 14.7316C141.708 13.9925 140.522 13.318 139.368 13.318C138.214 13.318 137.509 14.1211 137.476 16.0484H135.553Z" fill="white" fill-opacity="0.84"/>
<path fill-rule="evenodd" clip-rule="evenodd" d="M160.989 19.1247C160.989 28.5823 153.305 36.2492 143.825 36.2492C134.346 36.2492 126.661 28.5823 126.661 19.1247C126.661 9.66692 134.346 2 143.825 2C153.305 2 160.989 9.66692 160.989 19.1247Z" stroke="white" stroke-opacity="0.84" stroke-width="4"/>
<g clip-path="url(#clip0_10_11)">
<path d="M38.4143 15.9078C38.4143 13.802 36.339 11.5654 32.7478 11.5654C28.715 11.5654 24.2849 14.4845 23.6079 20.3082C22.9161 26.19 26.6251 28.8042 30.3635 28.8042C34.1019 28.8042 36.0594 27.3664 38.061 25.4494C36.339 23.3145 34.1166 24.3021 33.6898 24.5199C33.2188 24.7523 32.6153 25.0718 31.379 25.0718C29.9366 25.0718 28.4648 24.4328 28.4648 21.7751C37.7078 20.8746 38.4143 18.0136 38.4143 15.9078ZM33.8369 16.2563C33.7781 16.9099 33.5131 18.0281 28.8328 18.6526C29.8189 15.1962 31.7028 14.9347 32.5712 14.9347C33.3807 14.9347 33.8958 15.5592 33.8369 16.2563ZM18.1769 16.8227C18.1769 16.8227 16.1899 22.9805 16.028 23.4888C15.9692 22.9659 14.5121 11.914 14.5121 11.914C11.1269 11.914 9.31657 14.2957 8.35989 16.8082C8.35989 16.8082 5.94612 22.9805 5.74007 23.5033C5.72535 23.024 5.37211 16.8808 5.37211 16.8808C5.16606 13.802 2.31074 11.9285 0 11.9285L2.79644 28.6735C6.34351 28.6589 8.25686 26.2917 9.2577 23.7792C9.2577 23.7792 11.3918 18.3331 11.4801 18.0862C11.4948 18.3186 13.0108 28.6735 13.0108 28.6735C16.5726 28.6735 18.486 26.4514 19.5162 24.0261L24.5057 11.9285C20.988 11.9285 19.1336 14.2957 18.1769 16.8227ZM51.484 11.5364C49.291 11.5364 47.6131 12.7127 46.2002 14.441V14.4264L47.4659 4.36203C44.5517 4.36203 42.1821 6.85998 41.7259 10.5779L39.5181 28.5428C41.196 28.5428 42.9769 28.0635 43.9336 26.8436C44.7872 27.9328 46.0677 28.8042 47.9663 28.8042C52.8822 28.8042 56.2526 23.1693 56.2526 17.8829C56.2232 13.0613 53.8536 11.5364 51.484 11.5364ZM51.0277 20.1775C50.5126 23.1257 48.8494 25.1299 47.2452 25.1299C45.6262 25.1299 44.9344 24.4182 44.9344 24.4182C45.2435 21.8331 45.4348 20.2501 46.0235 18.885C46.6123 17.5198 48.0105 15.3414 49.4676 15.3414C50.8952 15.3414 51.5428 17.2148 51.0277 20.1775ZM68.5275 11.9285H65.0982L65.1129 11.7542C65.3484 9.54673 65.8783 8.38489 67.6297 8.19609C68.8219 8.07991 69.3518 7.46994 69.4842 6.80189C69.5872 6.27906 69.911 4.46369 69.911 4.46369C63.023 4.42012 60.8594 7.35376 60.3001 11.8268L60.2854 11.9285H60.2118C59.0932 11.9285 57.8569 13.1775 57.6509 14.7605L57.5773 15.3414H59.8733L57.9452 31.0552L57.3565 33.8727C57.4301 33.8727 57.5184 33.8872 57.592 33.8872C60.8153 33.771 62.8758 31.2585 63.3321 27.6133L64.8333 15.3414H65.9077C66.9674 15.3414 68.2037 14.2957 68.4245 12.553L68.5275 11.9285ZM86.3659 11.638C82.4067 11.638 78.6683 14.5136 77.5203 19.0302C76.3723 23.5469 78.109 28.8913 83.9374 28.8913C89.7511 28.8913 93.1068 23.329 93.1068 18.6962C93.1068 14.0924 89.9424 11.638 86.3659 11.638ZM87.9702 20.0323C87.7641 22.08 86.8516 25.188 84.3495 25.188C81.8327 25.188 82.186 21.5572 82.4362 19.829C82.7011 17.9846 83.7461 15.3559 85.9979 15.3559C88.0143 15.3559 88.2057 17.7232 87.9702 20.0323ZM112.667 16.8227C112.667 16.8227 110.68 22.9805 110.518 23.4888C110.459 22.9659 109.002 11.914 109.002 11.914C105.617 11.914 103.807 14.2957 102.85 16.8082C102.85 16.8082 100.436 22.9805 100.23 23.5033C100.216 23.024 99.8624 16.8808 99.8624 16.8808C99.6564 13.802 96.801 11.9285 94.4903 11.9285L97.272 28.6735C100.819 28.6589 102.732 26.2917 103.733 23.7792C103.733 23.7792 105.867 18.3331 105.941 18.0862C105.97 18.3186 107.472 28.6735 107.472 28.6735C111.033 28.6735 112.947 26.4514 113.977 24.0261L118.967 11.9285C115.464 11.9285 113.609 14.2957 112.667 16.8227ZM71.7655 4.46369L68.8808 27.4245L68.2921 30.2565C68.3656 30.2565 68.454 30.271 68.5275 30.271C71.6331 30.2274 73.8408 27.5407 74.2529 24.1568L75.916 10.9845C76.4165 6.96164 73.988 4.46369 71.7655 4.46369Z" fill="white" fill-opacity="0.84"/>
</g>
<path d="M168.684 8.40784C168.684 4.86889 171.536 2 175.055 2H185.988C189.506 2 192.359 4.86889 192.359 8.40784C192.359 10.6487 191.215 12.621 189.483 13.7663C191.215 14.9116 192.359 16.8838 192.359 19.1247C192.359 22.6637 189.506 25.5326 185.988 25.5326H185.849C184.2 25.5326 182.696 24.9021 181.565 23.8676V29.7718C181.565 33.3579 178.638 36.2492 175.09 36.2492C171.58 36.2492 168.684 33.3891 168.684 29.8413C168.684 27.6005 169.828 25.6284 171.56 24.4831C169.828 23.3377 168.684 21.3655 168.684 19.1247C168.684 16.8838 169.828 14.9116 171.56 13.7663C169.828 12.621 168.684 10.6487 168.684 8.40784ZM179.478 14.8158H175.055C172.689 14.8158 170.771 16.745 170.771 19.1247C170.771 21.4953 172.674 23.4187 175.028 23.4336C175.037 23.4335 175.046 23.4335 175.055 23.4335H179.478V14.8158ZM181.565 19.1247C181.565 21.5045 183.483 23.4336 185.849 23.4336H185.988C188.354 23.4336 190.272 21.5045 190.272 19.1247C190.272 16.745 188.354 14.8158 185.988 14.8158H185.849C183.483 14.8158 181.565 16.745 181.565 19.1247ZM175.055 25.5326C175.046 25.5326 175.037 25.5325 175.028 25.5325C172.674 25.5473 170.771 27.4708 170.771 29.8413C170.771 32.2123 172.715 34.1502 175.09 34.1502C177.503 34.1502 179.478 32.1812 179.478 29.7718V25.5326H175.055ZM175.055 4.09895C172.689 4.09895 170.771 6.02811 170.771 8.40784C170.771 10.7876 172.689 12.7167 175.055 12.7167H179.478V4.09895H175.055ZM181.565 12.7167H185.988C188.354 12.7167 190.272 10.7876 190.272 8.40784C190.272 6.02811 188.354 4.09895 185.988 4.09895H181.565V12.7167Z" fill="white" fill-opacity="0.84"/>
<g clip-path="url(#clip1_10_11)">
<path d="M237.341 2L240.034 32.832L252.12 36.2492L264.239 32.8315L266.935 2H237.341ZM261.929 30.9368L252.121 33.7032L242.344 30.9381L240.031 4.44637H264.245L261.929 30.9368Z" fill="white" fill-opacity="0.84"/>
<path d="M252.137 25.7553L247.994 24.6338L247.73 21.6474H244.011L244.532 27.5597L252.137 29.6857L259.728 27.5465L260.769 15.9902H247.205L246.897 12.0913H261.077L261.401 8.29299L242.845 8.2832L243.814 19.7362H256.684L256.254 24.6279L252.137 25.7553Z" fill="white" fill-opacity="0.84"/>
</g>
<path d="M276.084 3.46362H308.095V34.7855H276.084V3.46362ZM274.629 36.2492H309.55V2H274.629V36.2492ZM298.172 16.0509C297.022 16.0509 296.629 16.6364 296.629 17.1194C296.629 17.6463 296.891 18.0122 298.433 18.8172C300.718 19.9296 301.431 20.998 301.431 22.5641C301.431 24.9059 299.656 26.1647 297.255 26.1647C295.989 26.1647 294.898 25.9012 294.272 25.5353C294.17 25.4914 294.156 25.4183 294.156 25.3011V23.1496C294.156 23.0032 294.228 22.9593 294.33 23.0325C295.247 23.6326 296.295 23.896 297.255 23.896C298.404 23.896 298.885 23.413 298.885 22.7544C298.885 22.2275 298.55 21.7591 297.08 20.998C295.014 20.0028 294.156 18.9929 294.156 17.3097C294.156 15.4215 295.625 13.8555 298.172 13.8555C299.423 13.8555 300.296 14.0458 300.776 14.2653C300.892 14.3385 300.922 14.4555 300.922 14.558V16.5631C300.922 16.6802 300.849 16.7534 300.703 16.7095C300.063 16.2998 299.117 16.0509 298.172 16.0509ZM285.658 17.7927C285.993 17.8219 286.255 17.8219 286.837 17.8219C288.539 17.8219 290.14 17.2219 290.14 14.8947C290.14 13.0359 288.99 12.0991 287.055 12.0991C286.473 12.0991 285.92 12.1284 285.658 12.143V17.7927ZM283.068 10.0207C283.068 9.91828 283.272 9.84505 283.389 9.84505C284.32 9.80115 285.702 9.77188 287.142 9.77188C291.173 9.77188 292.744 11.9966 292.744 14.8361C292.744 18.5537 290.067 20.1491 286.779 20.1491C286.226 20.1491 286.037 20.1198 285.644 20.1198V25.7402C285.644 25.8573 285.6 25.9158 285.469 25.9158H283.243C283.127 25.9158 283.068 25.8719 283.068 25.7402V10.0207H283.068Z" fill="white" fill-opacity="0.84"/>
<g clip-path="url(#clip2_10_11)">
<path d="M222.455 27.6027L214.855 29.7528L207.267 27.5933L206.748 21.6474H210.466L210.731 24.672L214.861 25.8312L214.871 25.852H214.873L218.994 24.7166L219.426 19.8126H210.766L210.457 15.9902H219.755L220.094 12.0913H205.91L205.602 8.34528H224.143L222.455 27.6027Z" fill="white" fill-opacity="0.84"/>
<path d="M200.053 2L202.746 32.832L214.832 36.2492L226.951 32.8315L229.647 2H200.053ZM224.641 30.9368L214.833 33.7032L205.056 30.9381L202.743 4.44637H226.957L224.641 30.9368Z" fill="white" fill-opacity="0.84"/>
</g>
<defs>
<clipPath id="clip0_10_11">
<rect width="118.967" height="29.5252" fill="white" transform="translate(0 4.36203)"/>
</clipPath>
<clipPath id="clip1_10_11">
<rect width="29.5937" height="34.2492" fill="white" transform="translate(237.341 2)"/>
</clipPath>
<clipPath id="clip2_10_11">
<rect width="29.5937" height="34.2492" fill="white" transform="translate(200.053 2)"/>
</clipPath>
</defs>
</svg>
