<svg width="64" height="64" viewBox="0 0 64 64" fill="none" xmlns="http://www.w3.org/2000/svg">
<path fill-rule="evenodd" clip-rule="evenodd" d="M33.7922 28.512V50.0764H29.5562V27.0099L33.7922 28.512Z" fill="white" fill-opacity="0.84"/>
<path fill-rule="evenodd" clip-rule="evenodd" d="M17.5421 26.6108C17.3738 20.9828 20.3441 18.1128 24.2095 18.1128C26.5634 18.1128 28.3564 18.8443 32.1663 20.6454C34.9683 21.9958 37.0412 23.0092 39.1146 23.0092C41.132 23.0092 42.0849 21.3769 42.1404 18.2815H45.4466C45.7265 24.5288 42.5325 26.78 39.0591 26.78C36.8174 26.78 34.8 26.105 30.9341 24.304C28.3003 23.0092 26.2274 21.8275 24.2095 21.8275C22.1927 21.8275 20.9599 23.2345 20.9038 26.6108H17.5421Z" fill="white" fill-opacity="0.84"/>
<path fill-rule="evenodd" clip-rule="evenodd" d="M62 32.0003C62 48.5686 48.5695 62 32 62C15.4315 62 2 48.5686 2 32.0003C2 15.4314 15.4315 2 32 2C48.5695 2 62 15.4314 62 32.0003Z" stroke="white" stroke-opacity="0.84" stroke-width="4"/>
</svg>
