<svg width="182" height="60" viewBox="0 0 182 60" fill="none" xmlns="http://www.w3.org/2000/svg">
<path d="M62.0427 25.6419C62.0427 22.789 59.2312 19.759 54.3659 19.759C48.9025 19.759 42.9006 23.7137 41.9834 31.6035C41.0462 39.5721 46.071 43.1136 51.1357 43.1136C56.2004 43.1136 58.8524 41.1658 61.5642 38.5686C59.2312 35.6763 56.2203 37.0143 55.6421 37.3094C55.004 37.6242 54.1865 38.0571 52.5115 38.0571C50.5575 38.0571 48.5635 37.1913 48.5635 33.5908C61.0856 32.3709 62.0427 28.4948 62.0427 25.6419ZM55.8415 26.1141C55.7617 26.9995 55.4028 28.5145 49.062 29.3606C50.3979 24.6778 52.9502 24.3237 54.1267 24.3237C55.2234 24.3237 55.9212 25.1697 55.8415 26.1141ZM34.6256 26.8815C34.6256 26.8815 31.9337 35.2238 31.7144 35.9124C31.6346 35.2041 29.6606 20.2312 29.6606 20.2312C25.0745 20.2312 22.6219 23.4579 21.3258 26.8618C21.3258 26.8618 18.0557 35.2238 17.7765 35.9321C17.7566 35.2828 17.278 26.9602 17.278 26.9602C16.9989 22.789 13.1305 20.2509 10 20.2509L13.7886 42.9365C18.594 42.9169 21.1862 39.7098 22.5421 36.306C22.5421 36.306 25.4334 28.9277 25.553 28.5932C25.5729 28.908 27.6267 42.9365 27.6267 42.9365C32.4522 42.9365 35.0443 39.9262 36.4401 36.6404L43.1997 20.2509C38.4341 20.2509 35.9217 23.4579 34.6256 26.8815ZM79.7492 19.7196C76.7782 19.7196 74.5051 21.3133 72.5909 23.6547V23.635L74.3057 10C70.3576 10 67.1473 13.3842 66.5292 18.4211L63.5382 42.7595C65.8114 42.7595 68.2241 42.1102 69.5202 40.4575C70.6767 41.9331 72.4114 43.1136 74.9836 43.1136C81.6435 43.1136 86.2097 35.4796 86.2097 28.3178C86.1698 21.7855 82.9595 19.7196 79.7492 19.7196ZM79.1311 31.4265C78.4332 35.4206 76.18 38.1358 74.0066 38.1358C71.8132 38.1358 70.8761 37.1717 70.8761 37.1717C71.2948 33.6695 71.554 31.5248 72.3516 29.6754C73.1492 27.8259 75.0435 24.8746 77.0175 24.8746C78.9517 24.8746 79.829 27.4127 79.1311 31.4265ZM102.839 20.2509H98.1935L98.2135 20.0148C98.5325 17.0241 99.2503 15.4501 101.623 15.1943C103.238 15.0369 103.956 14.2105 104.136 13.3055C104.275 12.5971 104.714 10.1377 104.714 10.1377C95.382 10.0787 92.4509 14.0531 91.6932 20.1131L91.6732 20.2509H91.5735C90.0581 20.2509 88.3832 21.9429 88.104 24.0876L88.0043 24.8746H91.1149L88.5028 46.1633L87.7052 49.9803C87.8049 49.9803 87.9245 50 88.0242 50C92.391 49.8426 95.1826 46.4388 95.8007 41.5002L97.8346 24.8746H99.2902C100.726 24.8746 102.401 23.4579 102.7 21.0969L102.839 20.2509ZM127.006 19.8574C121.643 19.8574 116.578 23.7531 115.023 29.8721C113.467 35.9911 115.82 43.2317 123.716 43.2317C131.593 43.2317 136.139 35.696 136.139 29.4196C136.139 23.1825 131.852 19.8574 127.006 19.8574ZM129.18 31.2297C128.901 34.0039 127.664 38.2145 124.275 38.2145C120.865 38.2145 121.344 33.2956 121.683 30.9543C122.041 28.4555 123.457 24.8942 126.508 24.8942C129.24 24.8942 129.499 28.1013 129.18 31.2297ZM162.639 26.8815C162.639 26.8815 159.947 35.2238 159.728 35.9124C159.648 35.2041 157.674 20.2312 157.674 20.2312C153.088 20.2312 150.635 23.4579 149.339 26.8618C149.339 26.8618 146.069 35.2238 145.79 35.9321C145.77 35.2828 145.291 26.9602 145.291 26.9602C145.012 22.789 141.144 20.2509 138.013 20.2509L141.782 42.9365C146.587 42.9169 149.179 39.7098 150.535 36.306C150.535 36.306 153.427 28.9277 153.526 28.5932C153.566 28.908 155.6 42.9365 155.6 42.9365C160.425 42.9365 163.018 39.9262 164.413 36.6404L171.173 20.2509C166.427 20.2509 163.915 23.4579 162.639 26.8815ZM107.226 10.1377L103.318 41.2445L102.52 45.0812C102.62 45.0812 102.74 45.1008 102.839 45.1008C107.047 45.0418 110.038 41.4019 110.596 36.8175L112.849 18.972C113.527 13.5219 110.237 10.1377 107.226 10.1377Z" fill="white" fill-opacity="0.84"/>
</svg>
