<svg width="60" height="60" viewBox="0 0 60 60" fill="none" xmlns="http://www.w3.org/2000/svg">
<path d="M4.2642 29.9983C4.2642 40.1848 10.184 48.9879 18.7683 53.1595L6.49228 19.5248C5.06435 22.7254 4.2642 26.2674 4.2642 29.9983ZM47.3724 28.6996C47.3724 25.5191 46.23 23.3165 45.2501 21.6021C43.9456 19.4822 42.7228 17.687 42.7228 15.5672C42.7228 13.2015 44.517 10.9994 47.0443 10.9994C47.1584 10.9994 47.2666 11.0136 47.3778 11.0199C42.7992 6.82527 36.6992 4.2642 29.9993 4.2642C21.0086 4.2642 13.0987 8.87706 8.49707 15.8639C9.10085 15.8821 9.66987 15.8948 10.1532 15.8948C12.845 15.8948 17.0118 15.5682 17.0118 15.5682C18.399 15.4864 18.5626 17.524 17.1768 17.688C17.1768 17.688 15.7826 17.8521 14.2313 17.9334L23.603 45.8088L29.2349 28.918L25.2253 17.9324C23.8395 17.8511 22.5266 17.687 22.5266 17.687C21.1398 17.6058 21.3024 15.4854 22.6892 15.5672C22.6892 15.5672 26.9392 15.8938 29.468 15.8938C32.1593 15.8938 36.3265 15.5672 36.3265 15.5672C37.7148 15.4854 37.8779 17.523 36.4916 17.687C36.4916 17.687 35.0945 17.8511 33.5461 17.9324L42.8462 45.5968L45.4132 37.0189C46.5257 33.4594 47.3724 30.9027 47.3724 28.6996ZM30.4508 32.2494L22.7294 54.6864C25.0348 55.3641 27.473 55.7348 29.9993 55.7348C32.9962 55.7348 35.8701 55.2167 38.5453 54.276C38.4763 54.1659 38.4136 54.0488 38.3622 53.9215L30.4508 32.2494ZM52.5807 17.6513C52.6914 18.471 52.7541 19.351 52.7541 20.2976C52.7541 22.9091 52.2664 25.8448 50.7973 29.5155L42.9363 52.2433C50.5872 47.7818 55.7333 39.4928 55.7333 29.9988C55.7338 25.5245 54.5909 21.3171 52.5807 17.6513ZM29.9993 0C13.4581 0 0 13.4571 0 29.9983C0 46.5414 13.4581 59.998 29.9993 59.998C46.5399 59.998 60 46.5414 60 29.9983C59.9995 13.4571 46.5399 0 29.9993 0ZM29.9993 58.623C14.2166 58.623 1.37553 45.7819 1.37553 29.9983C1.37553 14.2156 14.2161 1.37553 29.9993 1.37553C45.7814 1.37553 58.6215 14.2156 58.6215 29.9983C58.6215 45.7819 45.7814 58.623 29.9993 58.623Z" fill="white"/>
</svg>
